# xmcd
#
# Track frame offsets:
#	150
#	11140
#	21075
#	26852
#	39880
#	47797
#	53590
#	66355
#	74740
#	78707
#	89997
#	101982
#	112012
#	125392
#	136445
#	145867
#	156110
#	162952
#	174192
#	223300
#
# Disc length: 3493 seconds
#
# Revision: 0
# Processed by: cddbd v1.4PL0 Copyright (c) Steve Scherf et al.
# Submitted via: dBpowerAMP V4.0
#
DISCID=2e0da314
DTITLE=The v w Boys - Snappy Lunch
DYEAR=2003
DGENRE=Bluegrass
TTITLE0=Barefoot Nelle
TTITLE1=Sally Ann
TTITLE2=Hunter Berry Talks!
TTITLE3=Ole Budda
TTITLE4=Snappy Lunch
TTITLE5=Gary Wedemeyer Talks!
TTITLE6=Low and Lonely
TTITLE7=Carolina Town
TTITLE8=Joe Harr Talks!
TTITLE9=Froggy Went a Courtin'
TTITLE10=Sara Jane
TTITLE11=Patsy Stoneman Talks!
TTITLE12=I Just Don't Look Good Naked Anymore
TTITLE13=Smoke on The Water
TTITLE14=Saturday Night
TTITLE15=When I Wake up to Sleep no More
TTITLE16=Fred e. Smith Talks!
TTITLE17=La-de-tu-Dum
TTITLE18=Owner - Charles Dowell Talks About The Snappy Lunch
TTITLE19=DATA
EXTD=
EXTT0=
EXTT1=
EXTT2=
EXTT3=
EXTT4=
EXTT5=
EXTT6=
EXTT7=
EXTT8=
EXTT9=
EXTT10=
EXTT11=
EXTT12=
EXTT13=
EXTT14=
EXTT15=
EXTT16=
EXTT17=
EXTT18=
EXTT19=
PLAYORDER=
